<?xml version="1.0" encoding="utf-8"?>
<svg width="15px" height="15px" viewBox="0 0 15 15" version="1.1" xmlns:xlink="http://www.w3.org/1999/xlink" xmlns="http://www.w3.org/2000/svg">
  <path d="M12.1106 12.1139C10.77 13.4539 8.98683 14.191 7.09311 14.191C5.82615 14.191 4.58266 13.8526 3.50005 13.2161C3.42967 13.1759 3.34923 13.1524 3.27214 13.1524C3.17494 13.1524 3.07438 13.1859 2.99394 13.2462C1.96831 14.0402 0.935982 14.1575 0.483499 14.1675C1.02313 13.7655 1.47561 13.1424 1.85436 12.2747C1.92474 12.1139 1.89458 11.9263 1.77727 11.7923C-0.703013 8.99162 -0.572295 4.72362 2.07557 2.07705C3.41626 0.737018 5.19938 0 7.09311 0C8.98683 0 10.77 0.737018 12.1106 2.07705C14.8792 4.84757 14.8792 9.35008 12.1106 12.1139Z" id="Path" />
</svg>