<svg width="31" height="32" viewBox="0 0 31 32" fill="none" xmlns="http://www.w3.org/2000/svg">
<path fill-rule="evenodd" clip-rule="evenodd" d="M14.9815 0C8.17262 0 2.38249 4.25493 0.0640798 10.2389C0.0523329 10.2635 0.0427218 10.2891 0.0341786 10.3157C-0.0149447 10.4853 -0.00319778 10.5675 0.020296 10.6464C0.0811661 10.8533 0.306492 11.0123 0.535022 11.0123C0.763553 11.0123 0.953638 10.8672 1.03159 10.6667H1.03266C3.18982 5.0624 8.62114 1.06667 14.9815 1.06667C23.2257 1.06667 29.9321 7.76533 29.9321 16C29.9321 24.2347 23.2257 30.9333 14.9815 30.9333C8.62435 30.9333 3.19622 26.9419 1.03693 21.3429V21.3419C1.03587 21.3387 1.03159 21.3333 1.03159 21.3333C0.948299 21.1467 0.763553 21.0165 0.544634 21.0165C0.32785 21.0165 0.127086 21.1403 0.0587403 21.3333C0.0288391 21.4219 -0.00426568 21.5829 0.0437897 21.7099C0.0534008 21.7376 0.0630119 21.7653 0.0768945 21.7909C2.40278 27.7589 8.18437 32 14.9815 32C23.828 32 31 24.8363 31 16C31 7.16373 23.828 0 14.9815 0Z" fill="white"/>
</svg>
